<svg width="18" height="18" viewBox="0 0 18 18" fill="none" xmlns="http://www.w3.org/2000/svg">
<g id="calendar-icon.ff84145b.svg" clip-path="url(#clip0_2_61)">
<g id="4781851_calendar_date_day_event_month_icon">
<g id="Layer 2">
<path id="Path 9" d="M14.3805 17.1959H3.91926C3.05629 17.1993 2.22724 16.8601 1.61423 16.2527C1.00122 15.6452 0.654384 14.8193 0.649902 13.9564V4.87492C0.651593 4.44728 0.7375 4.02415 0.902716 3.62971C1.06793 3.23527 1.30922 2.87723 1.61281 2.57603C1.9164 2.27484 2.27634 2.0364 2.67208 1.87431C3.06782 1.71223 3.49161 1.62968 3.91926 1.63137H14.3805C14.8082 1.62968 15.232 1.71223 15.6277 1.87431C16.0235 2.0364 16.3834 2.27484 16.687 2.57603C16.9906 2.87723 17.2319 3.23527 17.3971 3.62971C17.5623 4.02415 17.6482 4.44728 17.6499 4.87492V13.9564C17.6454 14.8193 17.2986 15.6452 16.6856 16.2527C16.0726 16.8601 15.2435 17.1993 14.3805 17.1959ZM3.91926 2.92895C3.40115 2.92703 2.90349 3.13094 2.5357 3.49586C2.16791 3.86077 1.9601 4.35682 1.95797 4.87492V13.9564C1.9586 14.2132 2.00985 14.4674 2.10879 14.7043C2.20773 14.9413 2.35241 15.1565 2.53456 15.3375C2.71672 15.5186 2.93277 15.6619 3.17037 15.7594C3.40797 15.8568 3.66245 15.9065 3.91926 15.9056H14.3805C14.8987 15.9075 15.3963 15.7036 15.7641 15.3387C16.1319 14.9737 16.3397 14.4777 16.3418 13.9596V4.87492C16.3397 4.35682 16.1319 3.86077 15.7641 3.49586C15.3963 3.13094 14.8987 2.92703 14.3805 2.92895H3.91926Z" fill="#0B95D3"/>
<path id="Path 10" d="M14.3925 14.6587H11.5296C11.3397 14.6587 11.1575 14.5832 11.0232 14.4489C10.8889 14.3146 10.8135 14.1325 10.8135 13.9426V11.0797C10.8135 10.8897 10.8889 10.7076 11.0232 10.5733C11.1575 10.439 11.3397 10.3635 11.5296 10.3635H14.3933C14.4874 10.3635 14.5805 10.382 14.6674 10.418C14.7543 10.454 14.8332 10.5068 14.8997 10.5733C14.9662 10.6398 15.0189 10.7187 15.0549 10.8056C15.0909 10.8925 15.1094 10.9856 15.1094 11.0797V13.9434C15.1093 14.0374 15.0907 14.1305 15.0546 14.2174C15.0185 14.3042 14.9657 14.3831 14.8991 14.4495C14.8326 14.5159 14.7535 14.5686 14.6666 14.6045C14.5797 14.6404 14.4866 14.6588 14.3925 14.6587ZM12.2449 13.2272H13.6764V11.795H12.2449V13.2272Z" fill="#0B95D3"/>
<path id="Path 11" d="M16.9958 6.82086H1.30385C1.125 6.80496 0.958579 6.72267 0.837365 6.5902C0.716152 6.45774 0.648926 6.28469 0.648926 6.10513C0.648926 5.92557 0.716152 5.75252 0.837365 5.62006C0.958579 5.48759 1.125 5.4053 1.30385 5.3894H16.9958C17.1746 5.4053 17.3411 5.48759 17.4623 5.62006C17.5835 5.75252 17.6507 5.92557 17.6507 6.10513C17.6507 6.28469 17.5835 6.45774 17.4623 6.5902C17.3411 6.72267 17.1746 6.80496 16.9958 6.82086Z" fill="#0B95D3"/>
<path id="Path 12" d="M5.90705 4.49501C5.813 4.49501 5.71988 4.47649 5.633 4.4405C5.54611 4.40451 5.46717 4.35176 5.40067 4.28526C5.33417 4.21876 5.28142 4.13982 5.24543 4.05293C5.20944 3.96605 5.19092 3.87292 5.19092 3.77888V0.915978C5.19715 0.730313 5.27529 0.554337 5.40883 0.425201C5.54238 0.296065 5.72087 0.223877 5.90664 0.223877C6.09241 0.223877 6.27091 0.296065 6.40446 0.425201C6.538 0.554337 6.61614 0.730313 6.62237 0.915978V3.77888C6.62237 3.96867 6.54703 4.1507 6.41291 4.28498C6.27878 4.41925 6.09684 4.4948 5.90705 4.49501Z" fill="#0B95D3"/>
<path id="Path 13" d="M12.3934 4.49501C12.2993 4.49501 12.2062 4.47649 12.1193 4.4405C12.0324 4.40451 11.9535 4.35176 11.887 4.28526C11.8205 4.21876 11.7677 4.13982 11.7318 4.05293C11.6958 3.96605 11.6772 3.87292 11.6772 3.77888V0.915978C11.6835 0.730313 11.7616 0.554337 11.8952 0.425201C12.0287 0.296065 12.2072 0.223877 12.393 0.223877C12.5787 0.223877 12.7572 0.296065 12.8908 0.425201C13.0243 0.554337 13.1025 0.730313 13.1087 0.915978V3.77888C13.1087 3.96867 13.0334 4.1507 12.8992 4.28498C12.7651 4.41925 12.5832 4.4948 12.3934 4.49501Z" fill="#0B95D3"/>
</g>
</g>
</g>
<defs>
<clipPath id="clip0_2_61">
<rect width="17" height="17" fill="white" transform="translate(0.649902 0.199951)"/>
</clipPath>
</defs>
</svg>
