<svg width="14" height="13" viewBox="0 0 14 13" fill="none" xmlns="http://www.w3.org/2000/svg">
<g id="comment-light.bd31b019.svg" clip-path="url(#clip0_2_146)">
<path id="message" d="M11.083 0.719971H2.41699C1.84273 0.721484 1.29243 0.950276 0.886367 1.35634C0.480306 1.7624 0.251513 2.3127 0.25 2.88696L0.25 8.30346C0.252772 8.87689 0.48212 9.42597 0.888045 9.831C1.29397 10.236 1.84355 10.4642 2.41699 10.4657V12.09C2.41789 12.1963 2.45004 12.3 2.50945 12.3881C2.56886 12.4763 2.65289 12.545 2.75109 12.5857C2.84928 12.6265 2.95729 12.6374 3.06166 12.6172C3.16603 12.597 3.26215 12.5466 3.33805 12.4721L5.34452 10.4657H11.0859C11.6601 10.4642 12.2104 10.2354 12.6165 9.8293C13.0226 9.42324 13.2514 8.87294 13.2529 8.29869V2.88696C13.2514 2.31221 13.0222 1.76147 12.6155 1.35533C12.2088 0.949185 11.6578 0.720727 11.083 0.719971ZM7.83445 7.2171H4.58588C4.4422 7.2171 4.30441 7.16003 4.20281 7.05843C4.10121 6.95683 4.04414 6.81904 4.04414 6.67536C4.04414 6.53168 4.10121 6.39388 4.20281 6.29229C4.30441 6.19069 4.4422 6.13361 4.58588 6.13361H7.83445C7.97813 6.13361 8.11592 6.19069 8.21752 6.29229C8.31912 6.39388 8.37619 6.53168 8.37619 6.67536C8.37619 6.81904 8.31912 6.95683 8.21752 7.05843C8.11592 7.16003 7.97813 7.2171 7.83445 7.2171ZM8.91699 5.05299H4.58301C4.51075 5.0573 4.43838 5.04625 4.3707 5.02055C4.30302 4.99485 4.24155 4.95509 4.19036 4.9039C4.13916 4.8527 4.09941 4.79124 4.07371 4.72356C4.04801 4.65587 4.03695 4.58351 4.04127 4.51124C4.03681 4.43889 4.04776 4.36642 4.0734 4.29862C4.09903 4.23083 4.13877 4.16924 4.18998 4.11794C4.24119 4.06664 4.3027 4.0268 4.37046 4.00104C4.43821 3.97529 4.51066 3.96421 4.58301 3.96854H8.91699C8.98925 3.96422 9.06162 3.97528 9.1293 4.00098C9.19698 4.02667 9.25845 4.06643 9.30964 4.11763C9.36084 4.16882 9.40059 4.23028 9.42629 4.29797C9.45199 4.36565 9.46305 4.43801 9.45873 4.51028C9.46319 4.58263 9.45224 4.6551 9.4266 4.7229C9.40097 4.7907 9.36123 4.85228 9.31002 4.90358C9.25881 4.95488 9.1973 4.99473 9.12954 5.02048C9.06179 5.04624 8.98934 5.05731 8.91699 5.05299Z" fill="#C6C6C6"/>
</g>
<defs>
<clipPath id="clip0_2_146">
<rect width="13" height="11.9089" fill="white" transform="translate(0.25 0.719971)"/>
</clipPath>
</defs>
</svg>
