<svg width="21" height="21" viewBox="0 0 21 21" fill="none" xmlns="http://www.w3.org/2000/svg">
<g id="sun-icon.b61be7df.svg" clip-path="url(#clip0_2_45)">
<g id="Sunny">
<g id="Group 272">
<path id="Oval-4" d="M10.3092 15.6074C13.0199 15.6074 15.2175 13.4098 15.2175 10.6991C15.2175 7.98829 13.0199 5.79077 10.3092 5.79077C7.5984 5.79077 5.40088 7.98829 5.40088 10.6991C5.40088 13.4098 7.5984 15.6074 10.3092 15.6074Z" stroke="#FF9C05" stroke-width="1.5949"/>
<path id="Path-7" d="M10.31 1.49731V3.4694M16.8172 4.19269L15.4224 5.58663M19.5125 10.6999H17.5404M16.8172 17.207L15.4224 15.8123M10.31 19.9024V17.9303M3.8028 17.207L5.19753 15.8123M1.10742 10.6999H3.07951M3.8028 4.19269L5.19674 5.58663" stroke="#FF9C05" stroke-width="1.5949" stroke-linecap="round"/>
</g>
</g>
</g>
<defs>
<clipPath id="clip0_2_45">
<rect width="20" height="20" fill="white" transform="translate(0.310059 0.699951)"/>
</clipPath>
</defs>
</svg>
